<svg xmlns="http://www.w3.org/2000/svg" viewBox="0 0 32 32">
  <defs>
    <linearGradient id="bg" x1="0" y1="0" x2="32" y2="32" gradientUnits="userSpaceOnUse">
      <stop offset="0%" stop-color="#1E1B4B"/>
      <stop offset="100%" stop-color="#0F172A"/>
    </linearGradient>
    <filter id="glow" x="-50%" y="-50%" width="200%" height="200%">
      <feGaussianBlur in="SourceGraphic" stdDeviation="1.2"/>
    </filter>
  </defs>
  <rect width="32" height="32" rx="6" fill="url(#bg)"/>
  <circle cx="21.5" cy="14" r="4" fill="#FDE047" opacity="0.12" filter="url(#glow)"/>
  <g fill="#334155" opacity="0.35" shape-rendering="crispEdges">
    <rect x="1" y="4" width="1" height="1"/>
    <rect x="1" y="8" width="1" height="1"/>
    <rect x="1" y="12" width="1" height="1"/>
    <rect x="1" y="16" width="1" height="1"/>
    <rect x="1" y="20" width="1" height="1"/>
    <rect x="1" y="24" width="1" height="1"/>
    <rect x="30" y="4" width="1" height="1"/>
    <rect x="30" y="8" width="1" height="1"/>
    <rect x="30" y="12" width="1" height="1"/>
    <rect x="30" y="16" width="1" height="1"/>
    <rect x="30" y="20" width="1" height="1"/>
    <rect x="30" y="24" width="1" height="1"/>
  </g>
  <g shape-rendering="crispEdges">
    <g fill="#FDE047" opacity="0.15">
      <rect x="24" y="13" width="1" height="1"/>
      <rect x="19" y="15" width="1" height="1"/>
      <rect x="24" y="15" width="1" height="1"/>
      <rect x="20" y="16" width="1" height="1"/>
    </g>
    <g fill="#FDE047" opacity="0.3">
      <rect x="19" y="11" width="1" height="1"/>
      <rect x="23" y="12" width="1" height="1"/>
      <rect x="24" y="14" width="1" height="1"/>
      <rect x="21" y="16" width="1" height="1"/>
      <rect x="22" y="16" width="1" height="1"/>
    </g>
    <g fill="#3B82F6" opacity="0.4">
      <rect x="14" y="7" width="1" height="1"/>
      <rect x="20" y="7" width="1" height="1"/>
      <rect x="21" y="7" width="1" height="1"/>
      <rect x="14" y="8" width="1" height="1"/>
      <rect x="19" y="8" width="1" height="1"/>
      <rect x="16" y="9" width="1" height="1"/>
      <rect x="18" y="9" width="1" height="1"/>
    </g>
    <g fill="#6366F1" opacity="0.45">
      <rect x="15" y="6" width="1" height="1"/>
      <rect x="20" y="6" width="1" height="1"/>
      <rect x="15" y="7" width="1" height="1"/>
      <rect x="19" y="7" width="1" height="1"/>
      <rect x="15" y="8" width="1" height="1"/>
      <rect x="18" y="8" width="1" height="1"/>
      <rect x="17" y="9" width="1" height="1"/>
    </g>
    <g fill="#451A03" opacity="0.5">
      <rect x="10" y="12" width="1" height="1"/>
      <rect x="13" y="12" width="1" height="1"/>
      <rect x="9" y="13" width="1" height="1"/>
      <rect x="12" y="13" width="1" height="1"/>
    </g>
    <g fill="#7C3AED" opacity="0.5">
      <rect x="16" y="5" width="1" height="1"/>
      <rect x="19" y="5" width="1" height="1"/>
      <rect x="16" y="6" width="1" height="1"/>
      <rect x="19" y="6" width="1" height="1"/>
      <rect x="16" y="7" width="1" height="1"/>
      <rect x="18" y="7" width="1" height="1"/>
      <rect x="16" y="8" width="1" height="1"/>
      <rect x="17" y="8" width="1" height="1"/>
    </g>
    <g fill="#8B5CF6" opacity="0.55">
      <rect x="17" y="4" width="1" height="1"/>
      <rect x="18" y="4" width="1" height="1"/>
      <rect x="17" y="5" width="1" height="1"/>
      <rect x="18" y="5" width="1" height="1"/>
      <rect x="17" y="6" width="1" height="1"/>
      <rect x="18" y="6" width="1" height="1"/>
      <rect x="17" y="7" width="1" height="1"/>
    </g>
    <g fill="#92400E" opacity="0.6">
      <rect x="10" y="3" width="1" height="1"/>
      <rect x="15" y="3" width="1" height="1"/>
      <rect x="11" y="4" width="1" height="1"/>
      <rect x="14" y="4" width="1" height="1"/>
      <rect x="12" y="5" width="1" height="1"/>
    </g>
    <g fill="#FDE047" opacity="0.6">
      <rect x="19" y="12" width="1" height="1"/>
      <rect x="22" y="12" width="1" height="1"/>
      <rect x="23" y="13" width="1" height="1"/>
      <rect x="23" y="14" width="1" height="1"/>
      <rect x="20" y="15" width="1" height="1"/>
      <rect x="23" y="15" width="1" height="1"/>
    </g>
    <rect x="19" y="13" width="1" height="1" fill="#451A03"/>
    <rect x="19" y="14" width="1" height="1" fill="#451A03"/>
    <rect x="16" y="10" width="1" height="1" fill="#78350F"/>
    <rect x="15" y="11" width="1" height="1" fill="#78350F"/>
    <rect x="17" y="11" width="1" height="1" fill="#78350F"/>
    <rect x="15" y="12" width="1" height="1" fill="#78350F"/>
    <rect x="16" y="12" width="1" height="1" fill="#78350F"/>
    <rect x="18" y="12" width="1" height="1" fill="#78350F"/>
    <rect x="17" y="13" width="1" height="1" fill="#78350F"/>
    <rect x="8" y="9" width="1" height="1" fill="#7C2D12"/>
    <rect x="9" y="9" width="1" height="1" fill="#7C2D12"/>
    <rect x="8" y="10" width="1" height="1" fill="#7C2D12"/>
    <rect x="8" y="11" width="1" height="1" fill="#7C2D12"/>
    <rect x="10" y="9" width="1" height="1" fill="#92400E"/>
    <rect x="15" y="10" width="1" height="1" fill="#92400E"/>
    <rect x="9" y="11" width="1" height="1" fill="#92400E"/>
    <rect x="10" y="11" width="1" height="1" fill="#92400E"/>
    <rect x="16" y="11" width="1" height="1" fill="#92400E"/>
    <rect x="17" y="12" width="1" height="1" fill="#92400E"/>
    <rect x="18" y="13" width="1" height="1" fill="#92400E"/>
    <rect x="11" y="9" width="1" height="1" fill="#B45309"/>
    <rect x="13" y="9" width="1" height="1" fill="#B45309"/>
    <rect x="13" y="10" width="1" height="1" fill="#B45309"/>
    <rect x="14" y="10" width="1" height="1" fill="#B45309"/>
    <rect x="11" y="11" width="1" height="1" fill="#B45309"/>
    <rect x="14" y="11" width="1" height="1" fill="#B45309"/>
    <rect x="12" y="9" width="1" height="1" fill="#D97706"/>
    <rect x="11" y="10" width="1" height="1" fill="#D97706"/>
    <rect x="12" y="10" width="1" height="1" fill="#D97706"/>
    <rect x="12" y="11" width="1" height="1" fill="#D97706"/>
    <rect x="13" y="11" width="1" height="1" fill="#D97706"/>
    <rect x="20" y="12" width="1" height="1" fill="#FACC15"/>
    <rect x="21" y="13" width="1" height="1" fill="#FACC15"/>
    <rect x="20" y="14" width="1" height="1" fill="#FACC15"/>
    <rect x="21" y="14" width="1" height="1" fill="#FACC15"/>
    <rect x="22" y="15" width="1" height="1" fill="#FACC15"/>
    <rect x="21" y="12" width="1" height="1" fill="#FDE047"/>
    <rect x="20" y="13" width="1" height="1" fill="#FDE047"/>
    <rect x="22" y="13" width="1" height="1" fill="#FDE047"/>
    <rect x="22" y="14" width="1" height="1" fill="#FDE047"/>
    <rect x="21" y="15" width="1" height="1" fill="#FDE047"/>
    <rect x="9" y="10" width="1" height="1" fill="#FEF3C7"/>
    <rect x="10" y="10" width="1" height="1" fill="#FEF3C7"/>
  </g>
</svg>
